<mxfile host="app.diagrams.net" modified="2023-08-30T02:25:34.647Z" agent="Mozilla/5.0 (Windows NT 10.0; Win64; x64) AppleWebKit/537.36 (KHTML, like Gecko) Chrome/116.0.0.0 Safari/537.36 Edg/116.0.1938.62" etag="8AvTnKBscQkGdXJB5be1" version="21.7.0" type="github">
  <diagram id="R2lEEEUBdFMjLlhIrx00" name="Page-1">
    <mxGraphModel dx="1622" dy="2027" grid="1" gridSize="10" guides="1" tooltips="1" connect="1" arrows="1" fold="1" page="1" pageScale="1" pageWidth="850" pageHeight="1100" math="0" shadow="0" extFonts="Permanent Marker^https://fonts.googleapis.com/css?family=Permanent+Marker">
      <root>
        <mxCell id="0" />
        <mxCell id="1" parent="0" />
        <mxCell id="1PWoZyuFu5648V_OEfRB-84" value="Dependente" style="shape=ext;margin=3;double=1;whiteSpace=wrap;html=1;align=center;labelBackgroundColor=none;rounded=1;" vertex="1" parent="1">
          <mxGeometry x="220" y="480" width="100" height="40" as="geometry" />
        </mxCell>
        <mxCell id="1PWoZyuFu5648V_OEfRB-86" value="Tem" style="shape=rhombus;double=1;perimeter=rhombusPerimeter;whiteSpace=wrap;html=1;align=center;labelBackgroundColor=none;rounded=1;" vertex="1" parent="1">
          <mxGeometry x="390" y="390" width="120" height="60" as="geometry" />
        </mxCell>
        <mxCell id="1PWoZyuFu5648V_OEfRB-176" value="Voo" style="rounded=1;whiteSpace=wrap;html=1;labelBackgroundColor=none;" vertex="1" parent="1">
          <mxGeometry x="200" y="100" width="120" height="60" as="geometry" />
        </mxCell>
        <mxCell id="1PWoZyuFu5648V_OEfRB-177" value="Passageiro" style="rounded=1;whiteSpace=wrap;html=1;labelBackgroundColor=none;" vertex="1" parent="1">
          <mxGeometry x="560" y="320" width="120" height="60" as="geometry" />
        </mxCell>
        <mxCell id="1PWoZyuFu5648V_OEfRB-178" value="Assento" style="rounded=1;whiteSpace=wrap;html=1;labelBackgroundColor=none;" vertex="1" parent="1">
          <mxGeometry x="600" y="100" width="120" height="60" as="geometry" />
        </mxCell>
        <mxCell id="1PWoZyuFu5648V_OEfRB-179" value="Possui" style="rhombus;whiteSpace=wrap;html=1;labelBackgroundColor=none;rounded=1;arcSize=0;" vertex="1" parent="1">
          <mxGeometry x="390" y="220" width="120" height="60" as="geometry" />
        </mxCell>
        <mxCell id="1PWoZyuFu5648V_OEfRB-180" value="Tem" style="rhombus;whiteSpace=wrap;html=1;labelBackgroundColor=none;rounded=1;arcSize=0;" vertex="1" parent="1">
          <mxGeometry x="402.5" y="100" width="120" height="60" as="geometry" />
        </mxCell>
        <mxCell id="1PWoZyuFu5648V_OEfRB-181" value="" style="endArrow=none;html=1;rounded=1;exitX=1;exitY=0.5;exitDx=0;exitDy=0;entryX=0;entryY=0.5;entryDx=0;entryDy=0;labelBackgroundColor=none;fontColor=default;" edge="1" parent="1" source="1PWoZyuFu5648V_OEfRB-176" target="1PWoZyuFu5648V_OEfRB-180">
          <mxGeometry width="50" height="50" relative="1" as="geometry">
            <mxPoint x="352.5" y="220" as="sourcePoint" />
            <mxPoint x="402.5" y="170" as="targetPoint" />
          </mxGeometry>
        </mxCell>
        <mxCell id="1PWoZyuFu5648V_OEfRB-269" value="(0,n)" style="edgeLabel;html=1;align=center;verticalAlign=middle;resizable=0;points=[];" vertex="1" connectable="0" parent="1PWoZyuFu5648V_OEfRB-181">
          <mxGeometry x="-0.1568" relative="1" as="geometry">
            <mxPoint x="-20" y="-10" as="offset" />
          </mxGeometry>
        </mxCell>
        <mxCell id="1PWoZyuFu5648V_OEfRB-182" value="" style="endArrow=none;html=1;rounded=1;exitX=1;exitY=0.5;exitDx=0;exitDy=0;entryX=0;entryY=0.5;entryDx=0;entryDy=0;labelBackgroundColor=none;fontColor=default;" edge="1" parent="1" source="1PWoZyuFu5648V_OEfRB-180" target="1PWoZyuFu5648V_OEfRB-178">
          <mxGeometry width="50" height="50" relative="1" as="geometry">
            <mxPoint x="500" y="190" as="sourcePoint" />
            <mxPoint x="583" y="190" as="targetPoint" />
          </mxGeometry>
        </mxCell>
        <mxCell id="1PWoZyuFu5648V_OEfRB-183" value="" style="endArrow=none;html=1;rounded=1;exitX=1;exitY=1;exitDx=0;exitDy=0;entryX=0;entryY=0;entryDx=0;entryDy=0;labelBackgroundColor=none;fontColor=default;" edge="1" parent="1" source="1PWoZyuFu5648V_OEfRB-176" target="1PWoZyuFu5648V_OEfRB-179">
          <mxGeometry width="50" height="50" relative="1" as="geometry">
            <mxPoint x="360" y="180" as="sourcePoint" />
            <mxPoint x="443" y="180" as="targetPoint" />
          </mxGeometry>
        </mxCell>
        <mxCell id="1PWoZyuFu5648V_OEfRB-184" value="" style="endArrow=none;html=1;rounded=1;exitX=1;exitY=1;exitDx=0;exitDy=0;entryX=0;entryY=0;entryDx=0;entryDy=0;labelBackgroundColor=none;fontColor=default;" edge="1" parent="1" source="1PWoZyuFu5648V_OEfRB-179" target="1PWoZyuFu5648V_OEfRB-177">
          <mxGeometry width="50" height="50" relative="1" as="geometry">
            <mxPoint x="510" y="240" as="sourcePoint" />
            <mxPoint x="593" y="240" as="targetPoint" />
          </mxGeometry>
        </mxCell>
        <mxCell id="1PWoZyuFu5648V_OEfRB-185" value="" style="endArrow=oval;html=1;rounded=1;exitX=1;exitY=0.5;exitDx=0;exitDy=0;endFill=1;labelBackgroundColor=none;fontColor=default;" edge="1" parent="1">
          <mxGeometry width="50" height="50" relative="1" as="geometry">
            <mxPoint x="240" y="-40" as="sourcePoint" />
            <mxPoint x="280" y="-40" as="targetPoint" />
          </mxGeometry>
        </mxCell>
        <mxCell id="1PWoZyuFu5648V_OEfRB-186" value="Reserva" style="rounded=1;whiteSpace=wrap;html=1;labelBackgroundColor=none;" vertex="1" parent="1">
          <mxGeometry x="990" y="230" width="120" height="60" as="geometry" />
        </mxCell>
        <mxCell id="1PWoZyuFu5648V_OEfRB-189" value="" style="endArrow=oval;html=1;rounded=1;exitX=1;exitY=0.5;exitDx=0;exitDy=0;endFill=0;labelBackgroundColor=none;fontColor=default;" edge="1" parent="1">
          <mxGeometry width="50" height="50" relative="1" as="geometry">
            <mxPoint x="240" y="-20" as="sourcePoint" />
            <mxPoint x="280" y="-20" as="targetPoint" />
          </mxGeometry>
        </mxCell>
        <mxCell id="1PWoZyuFu5648V_OEfRB-190" value="" style="endArrow=oval;html=1;rounded=1;exitX=1;exitY=0.5;exitDx=0;exitDy=0;endFill=0;labelBackgroundColor=none;fontColor=default;" edge="1" parent="1">
          <mxGeometry width="50" height="50" relative="1" as="geometry">
            <mxPoint x="240" y="-1" as="sourcePoint" />
            <mxPoint x="280" y="-1" as="targetPoint" />
          </mxGeometry>
        </mxCell>
        <mxCell id="1PWoZyuFu5648V_OEfRB-191" value="" style="endArrow=oval;html=1;rounded=1;exitX=1;exitY=0.5;exitDx=0;exitDy=0;endFill=0;labelBackgroundColor=none;fontColor=default;" edge="1" parent="1">
          <mxGeometry width="50" height="50" relative="1" as="geometry">
            <mxPoint x="240" y="20" as="sourcePoint" />
            <mxPoint x="280" y="20" as="targetPoint" />
          </mxGeometry>
        </mxCell>
        <mxCell id="1PWoZyuFu5648V_OEfRB-192" value="" style="endArrow=oval;html=1;rounded=1;exitX=1;exitY=0.5;exitDx=0;exitDy=0;endFill=0;labelBackgroundColor=none;fontColor=default;" edge="1" parent="1">
          <mxGeometry width="50" height="50" relative="1" as="geometry">
            <mxPoint x="240" y="40" as="sourcePoint" />
            <mxPoint x="280" y="40" as="targetPoint" />
          </mxGeometry>
        </mxCell>
        <mxCell id="1PWoZyuFu5648V_OEfRB-193" value="" style="endArrow=oval;html=1;rounded=1;exitX=1;exitY=0.5;exitDx=0;exitDy=0;endFill=0;labelBackgroundColor=none;fontColor=default;" edge="1" parent="1">
          <mxGeometry width="50" height="50" relative="1" as="geometry">
            <mxPoint x="240" y="60" as="sourcePoint" />
            <mxPoint x="280" y="60" as="targetPoint" />
          </mxGeometry>
        </mxCell>
        <mxCell id="1PWoZyuFu5648V_OEfRB-194" value="" style="endArrow=none;html=1;rounded=1;labelBackgroundColor=none;fontColor=default;" edge="1" parent="1">
          <mxGeometry width="50" height="50" relative="1" as="geometry">
            <mxPoint x="240" y="100" as="sourcePoint" />
            <mxPoint x="240" y="-40" as="targetPoint" />
          </mxGeometry>
        </mxCell>
        <mxCell id="1PWoZyuFu5648V_OEfRB-197" value="idVoo (PK)" style="text;html=1;strokeColor=none;fillColor=none;align=left;verticalAlign=middle;whiteSpace=wrap;rounded=0;" vertex="1" parent="1">
          <mxGeometry x="290" y="-50" width="80" height="20" as="geometry" />
        </mxCell>
        <mxCell id="1PWoZyuFu5648V_OEfRB-198" value="numeroAviao" style="text;html=1;strokeColor=none;fillColor=none;align=left;verticalAlign=middle;whiteSpace=wrap;rounded=0;" vertex="1" parent="1">
          <mxGeometry x="290" y="-30" width="90" height="20" as="geometry" />
        </mxCell>
        <mxCell id="1PWoZyuFu5648V_OEfRB-199" value="cidadeOrigem" style="text;html=1;strokeColor=none;fillColor=none;align=left;verticalAlign=middle;whiteSpace=wrap;rounded=0;" vertex="1" parent="1">
          <mxGeometry x="290" y="-10" width="90" height="20" as="geometry" />
        </mxCell>
        <mxCell id="1PWoZyuFu5648V_OEfRB-203" value="cidadeDestino" style="text;html=1;strokeColor=none;fillColor=none;align=left;verticalAlign=middle;whiteSpace=wrap;rounded=0;" vertex="1" parent="1">
          <mxGeometry x="290" y="10" width="90" height="20" as="geometry" />
        </mxCell>
        <mxCell id="1PWoZyuFu5648V_OEfRB-204" value="horaVoo" style="text;html=1;strokeColor=none;fillColor=none;align=left;verticalAlign=middle;whiteSpace=wrap;rounded=0;" vertex="1" parent="1">
          <mxGeometry x="290" y="50" width="60" height="20" as="geometry" />
        </mxCell>
        <mxCell id="1PWoZyuFu5648V_OEfRB-205" value="dataVoo" style="text;html=1;strokeColor=none;fillColor=none;align=left;verticalAlign=middle;whiteSpace=wrap;rounded=0;" vertex="1" parent="1">
          <mxGeometry x="290" y="30" width="60" height="20" as="geometry" />
        </mxCell>
        <mxCell id="1PWoZyuFu5648V_OEfRB-206" value="" style="endArrow=none;html=1;rounded=1;labelBackgroundColor=none;fontColor=default;exitX=0.5;exitY=0;exitDx=0;exitDy=0;" edge="1" parent="1" source="1PWoZyuFu5648V_OEfRB-178">
          <mxGeometry width="50" height="50" relative="1" as="geometry">
            <mxPoint x="670" y="70" as="sourcePoint" />
            <mxPoint x="660" y="20" as="targetPoint" />
          </mxGeometry>
        </mxCell>
        <mxCell id="1PWoZyuFu5648V_OEfRB-207" value="" style="endArrow=oval;html=1;rounded=1;exitX=1;exitY=0.5;exitDx=0;exitDy=0;endFill=1;labelBackgroundColor=none;fontColor=default;" edge="1" parent="1">
          <mxGeometry width="50" height="50" relative="1" as="geometry">
            <mxPoint x="660" y="19.71" as="sourcePoint" />
            <mxPoint x="700" y="19.71" as="targetPoint" />
          </mxGeometry>
        </mxCell>
        <mxCell id="1PWoZyuFu5648V_OEfRB-208" value="" style="endArrow=oval;html=1;rounded=1;exitX=1;exitY=0.5;exitDx=0;exitDy=0;endFill=0;labelBackgroundColor=none;fontColor=default;" edge="1" parent="1">
          <mxGeometry width="50" height="50" relative="1" as="geometry">
            <mxPoint x="660" y="59.71000000000001" as="sourcePoint" />
            <mxPoint x="700" y="59.71000000000001" as="targetPoint" />
          </mxGeometry>
        </mxCell>
        <mxCell id="1PWoZyuFu5648V_OEfRB-209" value="" style="endArrow=oval;html=1;rounded=1;exitX=1;exitY=0.5;exitDx=0;exitDy=0;endFill=0;labelBackgroundColor=none;fontColor=default;" edge="1" parent="1">
          <mxGeometry width="50" height="50" relative="1" as="geometry">
            <mxPoint x="660" y="39.71000000000001" as="sourcePoint" />
            <mxPoint x="700" y="39.71000000000001" as="targetPoint" />
          </mxGeometry>
        </mxCell>
        <mxCell id="1PWoZyuFu5648V_OEfRB-210" value="idAssento (PK)" style="text;html=1;strokeColor=none;fillColor=none;align=left;verticalAlign=middle;whiteSpace=wrap;rounded=0;" vertex="1" parent="1">
          <mxGeometry x="710" y="10" width="100" height="20" as="geometry" />
        </mxCell>
        <mxCell id="1PWoZyuFu5648V_OEfRB-211" value="idVoo (FK)" style="text;html=1;strokeColor=none;fillColor=none;align=left;verticalAlign=middle;whiteSpace=wrap;rounded=0;" vertex="1" parent="1">
          <mxGeometry x="710" y="30" width="100" height="20" as="geometry" />
        </mxCell>
        <mxCell id="1PWoZyuFu5648V_OEfRB-212" value="quantidade" style="text;html=1;strokeColor=none;fillColor=none;align=left;verticalAlign=middle;whiteSpace=wrap;rounded=0;" vertex="1" parent="1">
          <mxGeometry x="710" y="50" width="100" height="20" as="geometry" />
        </mxCell>
        <mxCell id="1PWoZyuFu5648V_OEfRB-213" value="" style="endArrow=oval;html=1;rounded=1;endFill=0;labelBackgroundColor=none;fontColor=default;" edge="1" parent="1">
          <mxGeometry width="50" height="50" relative="1" as="geometry">
            <mxPoint x="620" y="420" as="sourcePoint" />
            <mxPoint x="660" y="420" as="targetPoint" />
          </mxGeometry>
        </mxCell>
        <mxCell id="1PWoZyuFu5648V_OEfRB-214" value="" style="endArrow=oval;html=1;rounded=1;exitX=1;exitY=0.5;exitDx=0;exitDy=0;endFill=1;labelBackgroundColor=none;fontColor=default;" edge="1" parent="1">
          <mxGeometry width="50" height="50" relative="1" as="geometry">
            <mxPoint x="620" y="500" as="sourcePoint" />
            <mxPoint x="660" y="500" as="targetPoint" />
          </mxGeometry>
        </mxCell>
        <mxCell id="1PWoZyuFu5648V_OEfRB-215" value="" style="endArrow=oval;html=1;rounded=1;endFill=0;labelBackgroundColor=none;fontColor=default;" edge="1" parent="1">
          <mxGeometry width="50" height="50" relative="1" as="geometry">
            <mxPoint x="620" y="440" as="sourcePoint" />
            <mxPoint x="660" y="440" as="targetPoint" />
          </mxGeometry>
        </mxCell>
        <mxCell id="1PWoZyuFu5648V_OEfRB-216" value="" style="endArrow=oval;html=1;rounded=1;endFill=0;labelBackgroundColor=none;fontColor=default;" edge="1" parent="1">
          <mxGeometry width="50" height="50" relative="1" as="geometry">
            <mxPoint x="620" y="460" as="sourcePoint" />
            <mxPoint x="660" y="460" as="targetPoint" />
          </mxGeometry>
        </mxCell>
        <mxCell id="1PWoZyuFu5648V_OEfRB-217" value="" style="endArrow=oval;html=1;rounded=1;endFill=0;labelBackgroundColor=none;fontColor=default;" edge="1" parent="1">
          <mxGeometry width="50" height="50" relative="1" as="geometry">
            <mxPoint x="620" y="480" as="sourcePoint" />
            <mxPoint x="660" y="480" as="targetPoint" />
          </mxGeometry>
        </mxCell>
        <mxCell id="1PWoZyuFu5648V_OEfRB-218" value="" style="endArrow=none;html=1;rounded=1;labelBackgroundColor=none;fontColor=default;" edge="1" parent="1">
          <mxGeometry width="50" height="50" relative="1" as="geometry">
            <mxPoint x="620" y="500" as="sourcePoint" />
            <mxPoint x="619.66" y="380" as="targetPoint" />
          </mxGeometry>
        </mxCell>
        <mxCell id="1PWoZyuFu5648V_OEfRB-219" value="CPF&amp;nbsp;(PK)" style="text;html=1;strokeColor=none;fillColor=none;align=left;verticalAlign=middle;whiteSpace=wrap;rounded=0;" vertex="1" parent="1">
          <mxGeometry x="670" y="490" width="100" height="20" as="geometry" />
        </mxCell>
        <mxCell id="1PWoZyuFu5648V_OEfRB-220" value="endereço" style="text;html=1;strokeColor=none;fillColor=none;align=left;verticalAlign=middle;whiteSpace=wrap;rounded=0;" vertex="1" parent="1">
          <mxGeometry x="670" y="410" width="100" height="20" as="geometry" />
        </mxCell>
        <mxCell id="1PWoZyuFu5648V_OEfRB-221" value="e-mail" style="text;html=1;strokeColor=none;fillColor=none;align=left;verticalAlign=middle;whiteSpace=wrap;rounded=0;" vertex="1" parent="1">
          <mxGeometry x="670" y="430" width="100" height="20" as="geometry" />
        </mxCell>
        <mxCell id="1PWoZyuFu5648V_OEfRB-222" value="telefone" style="text;html=1;strokeColor=none;fillColor=none;align=left;verticalAlign=middle;whiteSpace=wrap;rounded=0;" vertex="1" parent="1">
          <mxGeometry x="670" y="450" width="100" height="20" as="geometry" />
        </mxCell>
        <mxCell id="1PWoZyuFu5648V_OEfRB-223" value="nome" style="text;html=1;strokeColor=none;fillColor=none;align=left;verticalAlign=middle;whiteSpace=wrap;rounded=0;" vertex="1" parent="1">
          <mxGeometry x="670" y="470" width="100" height="20" as="geometry" />
        </mxCell>
        <mxCell id="1PWoZyuFu5648V_OEfRB-224" value="" style="endArrow=oval;html=1;rounded=1;endFill=0;labelBackgroundColor=none;fontColor=default;" edge="1" parent="1">
          <mxGeometry width="50" height="50" relative="1" as="geometry">
            <mxPoint x="730" y="419.66" as="sourcePoint" />
            <mxPoint x="800" y="420" as="targetPoint" />
          </mxGeometry>
        </mxCell>
        <mxCell id="1PWoZyuFu5648V_OEfRB-225" value="" style="endArrow=oval;html=1;rounded=1;endFill=0;labelBackgroundColor=none;fontColor=default;" edge="1" parent="1">
          <mxGeometry width="50" height="50" relative="1" as="geometry">
            <mxPoint x="760" y="439.65999999999997" as="sourcePoint" />
            <mxPoint x="800" y="439.65999999999997" as="targetPoint" />
          </mxGeometry>
        </mxCell>
        <mxCell id="1PWoZyuFu5648V_OEfRB-226" value="" style="endArrow=oval;html=1;rounded=1;endFill=0;labelBackgroundColor=none;fontColor=default;" edge="1" parent="1">
          <mxGeometry width="50" height="50" relative="1" as="geometry">
            <mxPoint x="760" y="539.9999999999999" as="sourcePoint" />
            <mxPoint x="800" y="539.9999999999999" as="targetPoint" />
          </mxGeometry>
        </mxCell>
        <mxCell id="1PWoZyuFu5648V_OEfRB-227" value="" style="endArrow=oval;html=1;rounded=1;endFill=0;labelBackgroundColor=none;fontColor=default;" edge="1" parent="1">
          <mxGeometry width="50" height="50" relative="1" as="geometry">
            <mxPoint x="760" y="520.3499999999999" as="sourcePoint" />
            <mxPoint x="800" y="520.3499999999999" as="targetPoint" />
          </mxGeometry>
        </mxCell>
        <mxCell id="1PWoZyuFu5648V_OEfRB-228" value="" style="endArrow=oval;html=1;rounded=1;endFill=0;labelBackgroundColor=none;fontColor=default;" edge="1" parent="1">
          <mxGeometry width="50" height="50" relative="1" as="geometry">
            <mxPoint x="760" y="500.34999999999997" as="sourcePoint" />
            <mxPoint x="800" y="500.34999999999997" as="targetPoint" />
          </mxGeometry>
        </mxCell>
        <mxCell id="1PWoZyuFu5648V_OEfRB-229" value="" style="endArrow=oval;html=1;rounded=1;endFill=0;labelBackgroundColor=none;fontColor=default;" edge="1" parent="1">
          <mxGeometry width="50" height="50" relative="1" as="geometry">
            <mxPoint x="760" y="480" as="sourcePoint" />
            <mxPoint x="800" y="480" as="targetPoint" />
          </mxGeometry>
        </mxCell>
        <mxCell id="1PWoZyuFu5648V_OEfRB-230" value="" style="endArrow=oval;html=1;rounded=1;endFill=0;labelBackgroundColor=none;fontColor=default;" edge="1" parent="1">
          <mxGeometry width="50" height="50" relative="1" as="geometry">
            <mxPoint x="760" y="460" as="sourcePoint" />
            <mxPoint x="800" y="460" as="targetPoint" />
          </mxGeometry>
        </mxCell>
        <mxCell id="1PWoZyuFu5648V_OEfRB-231" value="" style="endArrow=none;html=1;rounded=1;labelBackgroundColor=none;fontColor=default;" edge="1" parent="1">
          <mxGeometry width="50" height="50" relative="1" as="geometry">
            <mxPoint x="760" y="540" as="sourcePoint" />
            <mxPoint x="759.66" y="420" as="targetPoint" />
          </mxGeometry>
        </mxCell>
        <mxCell id="1PWoZyuFu5648V_OEfRB-232" value="Estado" style="text;html=1;strokeColor=none;fillColor=none;align=left;verticalAlign=middle;whiteSpace=wrap;rounded=0;" vertex="1" parent="1">
          <mxGeometry x="810" y="410" width="100" height="20" as="geometry" />
        </mxCell>
        <mxCell id="1PWoZyuFu5648V_OEfRB-233" value="Cidade" style="text;html=1;strokeColor=none;fillColor=none;align=left;verticalAlign=middle;whiteSpace=wrap;rounded=0;" vertex="1" parent="1">
          <mxGeometry x="810" y="430" width="100" height="20" as="geometry" />
        </mxCell>
        <mxCell id="1PWoZyuFu5648V_OEfRB-234" value="CEP" style="text;html=1;strokeColor=none;fillColor=none;align=left;verticalAlign=middle;whiteSpace=wrap;rounded=0;" vertex="1" parent="1">
          <mxGeometry x="810" y="450" width="100" height="20" as="geometry" />
        </mxCell>
        <mxCell id="1PWoZyuFu5648V_OEfRB-235" value="Bairro" style="text;html=1;strokeColor=none;fillColor=none;align=left;verticalAlign=middle;whiteSpace=wrap;rounded=0;" vertex="1" parent="1">
          <mxGeometry x="810" y="470" width="100" height="20" as="geometry" />
        </mxCell>
        <mxCell id="1PWoZyuFu5648V_OEfRB-236" value="Complemento" style="text;html=1;strokeColor=none;fillColor=none;align=left;verticalAlign=middle;whiteSpace=wrap;rounded=0;" vertex="1" parent="1">
          <mxGeometry x="810" y="490" width="100" height="20" as="geometry" />
        </mxCell>
        <mxCell id="1PWoZyuFu5648V_OEfRB-237" value="Número" style="text;html=1;strokeColor=none;fillColor=none;align=left;verticalAlign=middle;whiteSpace=wrap;rounded=0;" vertex="1" parent="1">
          <mxGeometry x="810" y="510" width="100" height="20" as="geometry" />
        </mxCell>
        <mxCell id="1PWoZyuFu5648V_OEfRB-238" value="Rua" style="text;html=1;strokeColor=none;fillColor=none;align=left;verticalAlign=middle;whiteSpace=wrap;rounded=0;" vertex="1" parent="1">
          <mxGeometry x="810" y="530" width="100" height="20" as="geometry" />
        </mxCell>
        <mxCell id="1PWoZyuFu5648V_OEfRB-239" value="" style="endArrow=none;html=1;rounded=1;exitX=1;exitY=0;exitDx=0;exitDy=0;entryX=0;entryY=1;entryDx=0;entryDy=0;labelBackgroundColor=none;fontColor=default;" edge="1" parent="1" source="1PWoZyuFu5648V_OEfRB-86" target="1PWoZyuFu5648V_OEfRB-177">
          <mxGeometry width="50" height="50" relative="1" as="geometry">
            <mxPoint x="440" y="320" as="sourcePoint" />
            <mxPoint x="530" y="365" as="targetPoint" />
          </mxGeometry>
        </mxCell>
        <mxCell id="1PWoZyuFu5648V_OEfRB-240" value="" style="endArrow=none;html=1;rounded=1;exitX=1;exitY=0;exitDx=0;exitDy=0;entryX=0;entryY=1;entryDx=0;entryDy=0;labelBackgroundColor=none;fontColor=default;" edge="1" parent="1" source="1PWoZyuFu5648V_OEfRB-84" target="1PWoZyuFu5648V_OEfRB-86">
          <mxGeometry width="50" height="50" relative="1" as="geometry">
            <mxPoint x="400" y="505" as="sourcePoint" />
            <mxPoint x="490" y="550" as="targetPoint" />
          </mxGeometry>
        </mxCell>
        <mxCell id="1PWoZyuFu5648V_OEfRB-244" value="" style="endArrow=none;html=1;rounded=1;entryX=0.597;entryY=1.042;entryDx=0;entryDy=0;labelBackgroundColor=none;fontColor=default;entryPerimeter=0;" edge="1" parent="1" target="1PWoZyuFu5648V_OEfRB-84">
          <mxGeometry width="50" height="50" relative="1" as="geometry">
            <mxPoint x="280" y="600" as="sourcePoint" />
            <mxPoint x="390" y="560" as="targetPoint" />
          </mxGeometry>
        </mxCell>
        <mxCell id="1PWoZyuFu5648V_OEfRB-245" value="CPF&amp;nbsp;(FK)" style="text;html=1;strokeColor=none;fillColor=none;align=left;verticalAlign=middle;whiteSpace=wrap;rounded=0;" vertex="1" parent="1">
          <mxGeometry x="325" y="590" width="100" height="20" as="geometry" />
        </mxCell>
        <mxCell id="1PWoZyuFu5648V_OEfRB-246" value="dataNascimento" style="text;html=1;strokeColor=none;fillColor=none;align=left;verticalAlign=middle;whiteSpace=wrap;rounded=0;" vertex="1" parent="1">
          <mxGeometry x="325" y="550" width="100" height="20" as="geometry" />
        </mxCell>
        <mxCell id="1PWoZyuFu5648V_OEfRB-247" value="Nome" style="text;html=1;strokeColor=none;fillColor=none;align=left;verticalAlign=middle;whiteSpace=wrap;rounded=0;" vertex="1" parent="1">
          <mxGeometry x="325" y="570" width="100" height="20" as="geometry" />
        </mxCell>
        <mxCell id="1PWoZyuFu5648V_OEfRB-248" value="Associar" style="rhombus;whiteSpace=wrap;html=1;labelBackgroundColor=none;rounded=1;arcSize=0;" vertex="1" parent="1">
          <mxGeometry x="810" y="160" width="120" height="60" as="geometry" />
        </mxCell>
        <mxCell id="1PWoZyuFu5648V_OEfRB-249" value="" style="endArrow=oval;html=1;rounded=1;endFill=0;labelBackgroundColor=none;fontColor=default;" edge="1" parent="1">
          <mxGeometry width="50" height="50" relative="1" as="geometry">
            <mxPoint x="280" y="559.5" as="sourcePoint" />
            <mxPoint x="320" y="559.5" as="targetPoint" />
          </mxGeometry>
        </mxCell>
        <mxCell id="1PWoZyuFu5648V_OEfRB-250" value="" style="endArrow=oval;html=1;rounded=1;endFill=0;labelBackgroundColor=none;fontColor=default;" edge="1" parent="1">
          <mxGeometry width="50" height="50" relative="1" as="geometry">
            <mxPoint x="280" y="579.76" as="sourcePoint" />
            <mxPoint x="320" y="579.76" as="targetPoint" />
          </mxGeometry>
        </mxCell>
        <mxCell id="1PWoZyuFu5648V_OEfRB-252" value="Fazer" style="rhombus;whiteSpace=wrap;html=1;labelBackgroundColor=none;rounded=1;arcSize=0;" vertex="1" parent="1">
          <mxGeometry x="790" y="290" width="120" height="60" as="geometry" />
        </mxCell>
        <mxCell id="1PWoZyuFu5648V_OEfRB-253" value="" style="endArrow=oval;html=1;rounded=1;exitX=1;exitY=0.5;exitDx=0;exitDy=0;endFill=1;labelBackgroundColor=none;fontColor=default;" edge="1" parent="1">
          <mxGeometry width="50" height="50" relative="1" as="geometry">
            <mxPoint x="1040" y="110" as="sourcePoint" />
            <mxPoint x="1080" y="110" as="targetPoint" />
          </mxGeometry>
        </mxCell>
        <mxCell id="1PWoZyuFu5648V_OEfRB-254" value="" style="endArrow=oval;html=1;rounded=1;endFill=0;labelBackgroundColor=none;fontColor=default;" edge="1" parent="1">
          <mxGeometry width="50" height="50" relative="1" as="geometry">
            <mxPoint x="1040" y="190" as="sourcePoint" />
            <mxPoint x="1080" y="190" as="targetPoint" />
          </mxGeometry>
        </mxCell>
        <mxCell id="1PWoZyuFu5648V_OEfRB-255" value="" style="endArrow=oval;html=1;rounded=1;endFill=0;labelBackgroundColor=none;fontColor=default;" edge="1" parent="1">
          <mxGeometry width="50" height="50" relative="1" as="geometry">
            <mxPoint x="1040" y="170" as="sourcePoint" />
            <mxPoint x="1080" y="170" as="targetPoint" />
          </mxGeometry>
        </mxCell>
        <mxCell id="1PWoZyuFu5648V_OEfRB-256" value="" style="endArrow=oval;html=1;rounded=1;endFill=0;labelBackgroundColor=none;fontColor=default;" edge="1" parent="1">
          <mxGeometry width="50" height="50" relative="1" as="geometry">
            <mxPoint x="1040" y="149.99999999999997" as="sourcePoint" />
            <mxPoint x="1080" y="149.99999999999997" as="targetPoint" />
          </mxGeometry>
        </mxCell>
        <mxCell id="1PWoZyuFu5648V_OEfRB-257" value="" style="endArrow=oval;html=1;rounded=1;endFill=0;labelBackgroundColor=none;fontColor=default;" edge="1" parent="1">
          <mxGeometry width="50" height="50" relative="1" as="geometry">
            <mxPoint x="1040" y="129.65999999999997" as="sourcePoint" />
            <mxPoint x="1080" y="129.65999999999997" as="targetPoint" />
          </mxGeometry>
        </mxCell>
        <mxCell id="1PWoZyuFu5648V_OEfRB-258" value="" style="endArrow=none;html=1;rounded=1;labelBackgroundColor=none;fontColor=default;" edge="1" parent="1">
          <mxGeometry width="50" height="50" relative="1" as="geometry">
            <mxPoint x="1040.34" y="230" as="sourcePoint" />
            <mxPoint x="1040" y="110" as="targetPoint" />
          </mxGeometry>
        </mxCell>
        <mxCell id="1PWoZyuFu5648V_OEfRB-259" value="idReserva (PK)" style="text;html=1;strokeColor=none;fillColor=none;align=left;verticalAlign=middle;whiteSpace=wrap;rounded=0;" vertex="1" parent="1">
          <mxGeometry x="1090" y="100" width="100" height="20" as="geometry" />
        </mxCell>
        <mxCell id="1PWoZyuFu5648V_OEfRB-260" value="CPF(FK)" style="text;html=1;strokeColor=none;fillColor=none;align=left;verticalAlign=middle;whiteSpace=wrap;rounded=0;" vertex="1" parent="1">
          <mxGeometry x="1090" y="120" width="100" height="20" as="geometry" />
        </mxCell>
        <mxCell id="1PWoZyuFu5648V_OEfRB-261" value="idAssento(FK)" style="text;html=1;strokeColor=none;fillColor=none;align=left;verticalAlign=middle;whiteSpace=wrap;rounded=0;" vertex="1" parent="1">
          <mxGeometry x="1090" y="140" width="100" height="20" as="geometry" />
        </mxCell>
        <mxCell id="1PWoZyuFu5648V_OEfRB-262" value="dataReserva" style="text;html=1;strokeColor=none;fillColor=none;align=left;verticalAlign=middle;whiteSpace=wrap;rounded=0;" vertex="1" parent="1">
          <mxGeometry x="1090" y="160" width="100" height="20" as="geometry" />
        </mxCell>
        <mxCell id="1PWoZyuFu5648V_OEfRB-263" value="horaReserva" style="text;html=1;strokeColor=none;fillColor=none;align=left;verticalAlign=middle;whiteSpace=wrap;rounded=0;" vertex="1" parent="1">
          <mxGeometry x="1090" y="180" width="100" height="20" as="geometry" />
        </mxCell>
        <mxCell id="1PWoZyuFu5648V_OEfRB-264" value="" style="endArrow=none;html=1;rounded=1;exitX=1;exitY=0.5;exitDx=0;exitDy=0;entryX=0;entryY=0;entryDx=0;entryDy=0;labelBackgroundColor=none;fontColor=default;" edge="1" parent="1" source="1PWoZyuFu5648V_OEfRB-178" target="1PWoZyuFu5648V_OEfRB-248">
          <mxGeometry width="50" height="50" relative="1" as="geometry">
            <mxPoint x="740" y="140" as="sourcePoint" />
            <mxPoint x="817" y="140" as="targetPoint" />
          </mxGeometry>
        </mxCell>
        <mxCell id="1PWoZyuFu5648V_OEfRB-265" value="" style="endArrow=none;html=1;rounded=1;exitX=1;exitY=0.5;exitDx=0;exitDy=0;entryX=0;entryY=1;entryDx=0;entryDy=0;labelBackgroundColor=none;fontColor=default;" edge="1" parent="1" source="1PWoZyuFu5648V_OEfRB-177" target="1PWoZyuFu5648V_OEfRB-252">
          <mxGeometry width="50" height="50" relative="1" as="geometry">
            <mxPoint x="681.5" y="300" as="sourcePoint" />
            <mxPoint x="758.5" y="300" as="targetPoint" />
          </mxGeometry>
        </mxCell>
        <mxCell id="1PWoZyuFu5648V_OEfRB-266" value="" style="endArrow=none;html=1;rounded=1;exitX=1;exitY=1;exitDx=0;exitDy=0;entryX=0;entryY=0;entryDx=0;entryDy=0;labelBackgroundColor=none;fontColor=default;" edge="1" parent="1" source="1PWoZyuFu5648V_OEfRB-248" target="1PWoZyuFu5648V_OEfRB-186">
          <mxGeometry width="50" height="50" relative="1" as="geometry">
            <mxPoint x="900" y="229.99999999999997" as="sourcePoint" />
            <mxPoint x="977" y="229.99999999999997" as="targetPoint" />
          </mxGeometry>
        </mxCell>
        <mxCell id="1PWoZyuFu5648V_OEfRB-267" value="" style="endArrow=none;html=1;rounded=1;exitX=1;exitY=0;exitDx=0;exitDy=0;entryX=0;entryY=1;entryDx=0;entryDy=0;labelBackgroundColor=none;fontColor=default;" edge="1" parent="1" source="1PWoZyuFu5648V_OEfRB-252" target="1PWoZyuFu5648V_OEfRB-186">
          <mxGeometry width="50" height="50" relative="1" as="geometry">
            <mxPoint x="960" y="340" as="sourcePoint" />
            <mxPoint x="1037" y="340" as="targetPoint" />
          </mxGeometry>
        </mxCell>
        <mxCell id="1PWoZyuFu5648V_OEfRB-270" value="(1,1)" style="edgeLabel;html=1;align=center;verticalAlign=middle;resizable=0;points=[];" vertex="1" connectable="0" parent="1">
          <mxGeometry x="579.9971428571429" y="120" as="geometry">
            <mxPoint as="offset" />
          </mxGeometry>
        </mxCell>
        <mxCell id="1PWoZyuFu5648V_OEfRB-271" value="(0,n)" style="edgeLabel;html=1;align=center;verticalAlign=middle;resizable=0;points=[];" vertex="1" connectable="0" parent="1">
          <mxGeometry x="539.9971428571429" y="370" as="geometry">
            <mxPoint as="offset" />
          </mxGeometry>
        </mxCell>
        <mxCell id="1PWoZyuFu5648V_OEfRB-272" value="(1,1)" style="edgeLabel;html=1;align=center;verticalAlign=middle;resizable=0;points=[];" vertex="1" connectable="0" parent="1">
          <mxGeometry x="324.9971428571429" y="460" as="geometry">
            <mxPoint as="offset" />
          </mxGeometry>
        </mxCell>
        <mxCell id="1PWoZyuFu5648V_OEfRB-273" value="(0,n)" style="edgeLabel;html=1;align=center;verticalAlign=middle;resizable=0;points=[];" vertex="1" connectable="0" parent="1">
          <mxGeometry x="699.9971428571429" y="330" as="geometry">
            <mxPoint as="offset" />
          </mxGeometry>
        </mxCell>
        <mxCell id="1PWoZyuFu5648V_OEfRB-274" value="(1,1)" style="edgeLabel;html=1;align=center;verticalAlign=middle;resizable=0;points=[];" vertex="1" connectable="0" parent="1">
          <mxGeometry x="969.9971428571429" y="280" as="geometry">
            <mxPoint as="offset" />
          </mxGeometry>
        </mxCell>
        <mxCell id="1PWoZyuFu5648V_OEfRB-275" value="(0,1)" style="edgeLabel;html=1;align=center;verticalAlign=middle;resizable=0;points=[];" vertex="1" connectable="0" parent="1">
          <mxGeometry x="979.9971428571429" y="210" as="geometry">
            <mxPoint as="offset" />
          </mxGeometry>
        </mxCell>
        <mxCell id="1PWoZyuFu5648V_OEfRB-276" value="(0,1)" style="edgeLabel;html=1;align=center;verticalAlign=middle;resizable=0;points=[];" vertex="1" connectable="0" parent="1">
          <mxGeometry x="739.9971428571429" y="120" as="geometry">
            <mxPoint as="offset" />
          </mxGeometry>
        </mxCell>
        <mxCell id="1PWoZyuFu5648V_OEfRB-277" value="(0,n)" style="edgeLabel;html=1;align=center;verticalAlign=middle;resizable=0;points=[];" vertex="1" connectable="0" parent="1">
          <mxGeometry x="344.48275862068976" y="160" as="geometry" />
        </mxCell>
        <mxCell id="1PWoZyuFu5648V_OEfRB-278" value="(1,n)" style="edgeLabel;html=1;align=center;verticalAlign=middle;resizable=0;points=[];" vertex="1" connectable="0" parent="1">
          <mxGeometry x="559.9971428571429" y="300" as="geometry">
            <mxPoint as="offset" />
          </mxGeometry>
        </mxCell>
        <mxCell id="1PWoZyuFu5648V_OEfRB-279" value="" style="endArrow=oval;html=1;rounded=1;endFill=0;labelBackgroundColor=none;fontColor=default;" edge="1" parent="1">
          <mxGeometry width="50" height="50" relative="1" as="geometry">
            <mxPoint x="280" y="599.76" as="sourcePoint" />
            <mxPoint x="320" y="599.76" as="targetPoint" />
          </mxGeometry>
        </mxCell>
      </root>
    </mxGraphModel>
  </diagram>
</mxfile>
